<?xml version="1.0" encoding="UTF-8"?><svg id="Layer_2" xmlns="http://www.w3.org/2000/svg" viewBox="0 0 54.76 54.21"><defs><style>.cls-1{fill:#fff;}.cls-2{fill:none;stroke:#fff;stroke-width:2px;}</style></defs><g id="Layer_1-2"><g><ellipse class="cls-2" cx="27.38" cy="27.1" rx="26.38" ry="26.1"/><path class="cls-1" d="M39.76,19.18c-.45-.69-1.24-1.09-2.06-1.05H18.15c-.4,0-.81,0-1.21,0-.49,0-.97,.16-1.37,.45-.49,.33-.81,.87-.87,1.46v14.13c.07,.17,.04,.36,.12,.52,.38,.88,1.28,1.43,2.24,1.38,6.87,0,13.74,0,20.61,0,1.19,.1,2.25-.77,2.39-1.96v-14.02c-.03-.32-.13-.63-.3-.9Zm-1.2,14.3c-.39-.39-.77-.76-1.13-1.13-1.69-1.69-3.38-3.38-5.07-5.07-.14-.14-.16-.21,0-.36,2.01-2,4.01-4,6.01-6.01,.05-.06,.1-.12,.15-.19l.05,.04v12.72Zm-22.36-.01v-12.71c.07-.03,.09,.05,.12,.08,2.04,2.04,4.08,4.08,6.12,6.12,.09,.09,.14,.15,.02,.27-2.07,2.06-4.13,4.12-6.19,6.19-.02,.02-.04,.03-.07,.05h0Zm1.14-13.78h20.1c0,.09-.08,.12-.12,.17-3.07,3.08-6.15,6.16-9.22,9.24-.29,.39-.84,.47-1.23,.18-.07-.05-.13-.12-.19-.19-3.06-3.07-6.13-6.13-9.19-9.2-.06-.05-.13-.1-.2-.14l.05-.06Zm1.63,13.12c1.5-1.5,2.99-2.99,4.49-4.5,.13-.13,.2-.15,.34,0,.61,.63,1.23,1.24,1.85,1.86,.88,.96,2.37,1.03,3.32,.15,.05-.05,.1-.1,.15-.15,.62-.63,1.25-1.25,1.87-1.87,.1-.11,.16-.13,.29-.01,2.03,2.04,4.07,4.09,6.11,6.12,.02,.02,.04,.04,.08,.09H17.25c.6-.59,1.17-1.14,1.72-1.69h0Z"/></g></g></svg>