<?xml version="1.0" encoding="UTF-8"?><svg id="Layer_2" xmlns="http://www.w3.org/2000/svg" viewBox="0 0 77 76.23"><defs><style>.cls-1{fill:#fff;}.cls-2{fill:none;stroke:#fff;stroke-width:2px;}</style></defs><g id="Layer_1-2"><g><ellipse class="cls-2" cx="38.5" cy="38.11" rx="37.5" ry="37.11"/><path class="cls-1" d="M47.82,20.78c0-.27-.07-.36-.34-.37-.95-.05-1.91-.14-2.86-.18-1.28-.1-2.57-.04-3.83,.18-1.5,.27-2.88,1.01-3.94,2.1-1.35,1.47-2.1,3.38-2.1,5.38-.07,1.7-.03,3.41-.03,5.11,0,.27-.08,.33-.33,.33-1.62-.01-3.24,0-4.86-.01-.26,0-.33,.07-.33,.33,.01,1.91,.01,3.83,0,5.74,0,.27,.08,.32,.33,.32,1.6-.01,3.2,0,4.79-.01,.32,0,.4,.08,.4,.4-.01,5.19-.01,10.38,0,15.58,0,.13,.01,.25,.02,.38h6.58c0-.06-.02-.12-.02-.17,0-5.3,0-10.59,0-15.89,0-.27,.1-.3,.33-.29,1.6,0,3.2,0,4.79,.01,.28,0,.39-.06,.42-.34,.23-1.9,.47-3.79,.73-5.69,.04-.3-.02-.36-.32-.36-1.88,.01-3.76,0-5.64,0-.16,0-.31,.04-.31-.23,.02-1.48-.01-2.96,.03-4.44-.07-1.27,.9-2.37,2.18-2.44,.07,0,.14,0,.21,0,1.27-.11,2.54-.03,3.81-.05,.24,0,.31-.05,.31-.3-.01-1.69-.01-3.38,0-5.07Z"/></g></g></svg>