<?xml version="1.0" encoding="UTF-8"?><svg id="Layer_2" xmlns="http://www.w3.org/2000/svg" viewBox="0 0 54 53.46"><defs><style>.cls-1{fill:#fff;}.cls-2{fill:none;stroke:#fff;stroke-width:2px;}</style></defs><g id="Layer_1-2"><g><ellipse class="cls-2" cx="27" cy="26.73" rx="26" ry="25.73"/><path class="cls-1" d="M33.29,20.56c-.58-1.35-1.59-2.48-2.87-3.2-1.46-.86-3.19-1.13-4.84-.77-1.23,.25-2.37,.85-3.28,1.72-1.4,1.3-2.19,3.14-2.16,5.06,0,1.18,.32,2.33,.91,3.35,1.84,3.31,3.67,6.63,5.5,9.95,.07,.15,.19,.27,.33,.36h.24c.14-.08,.26-.21,.33-.36,1.82-3.29,3.64-6.59,5.46-9.88,.43-.75,.73-1.58,.87-2.44,.2-1.28,.03-2.6-.5-3.79Zm-6.28,6.17c-1.89,0-3.42-1.53-3.43-3.42,0-1.9,1.53-3.44,3.42-3.45,1.89,0,3.42,1.53,3.43,3.42,0,1.9-1.53,3.44-3.42,3.45h0Z"/></g></g></svg>