<?xml version="1.0" encoding="UTF-8"?><svg id="Layer_2" xmlns="http://www.w3.org/2000/svg" viewBox="0 0 54 53.46"><defs><style>.cls-1{fill:#fff;}.cls-2{fill:none;stroke:#fff;stroke-width:2px;}</style></defs><g id="Layer_1-2"><g><g><path class="cls-1" d="M38.37,33.69c-.13,.27-.3,.52-.5,.74-1.31,1.47-2.83,2.73-4.51,3.76-.52,.28-1.14,.34-1.71,.16-2.11-.45-4.11-1.3-5.89-2.52-3.64-2.34-6.65-5.53-8.78-9.29-.84-1.44-1.43-3-1.76-4.64-.03-.14-.05-.29-.07-.43s-.04-.31-.05-.41c0-.25,.07-.5,.21-.71,.68-1.17,1.49-2.27,2.41-3.27,.53-.6,1.12-1.16,1.75-1.65,.57-.51,1.44-.46,1.95,.1,.05,.06,.1,.12,.14,.19,1.16,1.52,2.16,3.16,2.98,4.9,.03,.07,.05,.14,.08,.2,.41,.69,.2,1.58-.46,2.02-.4,.37-.82,.72-1.23,1.07-.11,.07-.15,.21-.09,.33,.94,2.65,2.89,4.82,5.42,6.04,.36,.17,.72,.33,1.1,.46,.1,.05,.23,.02,.29-.08,.29-.34,.58-.68,.87-1.02,.14-.16,.29-.31,.44-.46,.39-.4,.98-.53,1.5-.34,.59,.2,1.16,.46,1.7,.77,1.24,.69,2.43,1.46,3.58,2.3,.36,.25,.62,.63,.72,1.06,.06,.24,.03,.49-.08,.71Z"/><path class="cls-1" d="M38.37,33.69c-.13,.27-.3,.52-.5,.74-1.31,1.47-2.83,2.73-4.51,3.76-.52,.28-1.14,.34-1.71,.16-2.11-.45-4.11-1.3-5.89-2.52-3.64-2.34-6.65-5.53-8.78-9.29-.84-1.44-1.43-3-1.76-4.64-.03-.14-.05-.29-.07-.43s-.04-.31-.05-.41c0-.25,.07-.5,.21-.71,.68-1.17,1.49-2.27,2.41-3.27,.53-.6,1.12-1.16,1.75-1.65,.57-.51,1.44-.46,1.95,.1,.05,.06,.1,.12,.14,.19,1.16,1.52,2.16,3.16,2.98,4.9,.03,.07,.05,.14,.08,.2,.41,.69,.2,1.58-.46,2.02-.4,.37-.82,.72-1.23,1.07-.11,.07-.15,.21-.09,.33,.94,2.65,2.89,4.82,5.42,6.04,.36,.17,.72,.33,1.1,.46,.1,.05,.23,.02,.29-.08,.29-.34,.58-.68,.87-1.02,.14-.16,.29-.31,.44-.46,.39-.4,.98-.53,1.5-.34,.59,.2,1.16,.46,1.7,.77,1.24,.69,2.43,1.46,3.58,2.3,.36,.25,.62,.63,.72,1.06,.06,.24,.03,.49-.08,.71Z"/></g><ellipse class="cls-2" cx="27" cy="26.73" rx="26" ry="25.73"/></g></g></svg>