<?xml version="1.0" encoding="UTF-8"?><svg id="Layer_2" xmlns="http://www.w3.org/2000/svg" viewBox="0 0 100 99"><defs><style>.cls-1{fill:#fff;}.cls-2,.cls-3{fill:none;}.cls-3{stroke:#fff;stroke-width:3px;}</style></defs><g id="Footer"><g><g><ellipse class="cls-2" cx="50" cy="49.5" rx="50" ry="49.5"/><ellipse class="cls-3" cx="50" cy="49.5" rx="48.5" ry="48"/></g><path class="cls-1" d="M62.05,27.08c0-.35-.09-.46-.44-.48-1.23-.06-2.47-.18-3.7-.23-1.66-.13-3.32-.05-4.96,.23-1.94,.36-3.72,1.31-5.1,2.72-1.74,1.9-2.71,4.38-2.72,6.95-.09,2.2-.05,4.41-.04,6.61,0,.35-.1,.42-.43,.42-2.1-.01-4.19,0-6.29-.02-.34,0-.42,.09-.42,.43,.02,2.47,.02,4.95,0,7.42,0,.35,.1,.42,.43,.41,2.07-.02,4.13,0,6.2-.02,.42,0,.52,.11,.52,.52-.02,6.72-.02,13.43-.01,20.14,0,.17,.02,.33,.02,.49h8.51c0-.08-.02-.15-.02-.22,0-6.85,0-13.7-.01-20.55,0-.34,.14-.38,.42-.38,2.07,0,4.13,0,6.2,.02,.36,0,.5-.08,.54-.44,.3-2.45,.61-4.9,.94-7.36,.05-.39-.03-.47-.42-.47-2.43,.02-4.86,.01-7.29,.01-.21,0-.4,.05-.4-.3,.03-1.91-.02-3.83,.05-5.75-.09-1.65,1.17-3.06,2.82-3.15,.09,0,.18,0,.27,0,1.64-.14,3.29-.04,4.93-.06,.31,0,.4-.06,.4-.39-.02-2.19-.02-4.38,0-6.56Z"/></g></g></svg>