<?xml version="1.0" encoding="UTF-8"?><svg id="Layer_2" xmlns="http://www.w3.org/2000/svg" viewBox="0 0 75.76 75"><defs><style>.cls-1{fill:#fff;}.cls-2,.cls-3{fill:none;}.cls-3{stroke:#fff;stroke-width:3px;}</style></defs><g id="Footer"><g><g><ellipse class="cls-2" cx="37.88" cy="37.5" rx="37.88" ry="37.5"/><ellipse class="cls-3" cx="37.88" cy="37.5" rx="36.38" ry="36"/></g><path class="cls-1" d="M46.67,28.87c-.81-1.89-2.22-3.47-4.01-4.48-2.04-1.2-4.46-1.58-6.77-1.07-1.73,.35-3.32,1.19-4.58,2.41-1.96,1.82-3.06,4.39-3.02,7.07,.01,1.65,.45,3.26,1.27,4.69,2.57,4.64,5.14,9.28,7.7,13.92,.1,.21,.26,.38,.46,.5h.34c.2-.12,.36-.29,.46-.5,2.54-4.61,5.09-9.22,7.64-13.82,.61-1.06,1.02-2.21,1.21-3.42,.28-1.8,.04-3.64-.7-5.3Zm-8.79,8.63c-2.64,0-4.79-2.14-4.8-4.78,0-2.65,2.13-4.81,4.79-4.82,2.64,0,4.78,2.14,4.8,4.78,0,2.65-2.14,4.81-4.79,4.82h0Z"/></g></g></svg>