<?xml version="1.0" encoding="UTF-8"?><svg id="Layer_2" xmlns="http://www.w3.org/2000/svg" viewBox="0 0 75.76 75"><defs><style>.cls-1{fill:#fff;}.cls-2,.cls-3{fill:none;}.cls-3{stroke:#fff;stroke-width:3px;}</style></defs><g id="Footer"><g><g><ellipse class="cls-2" cx="37.88" cy="37.5" rx="37.88" ry="37.5"/><ellipse class="cls-3" cx="37.88" cy="37.5" rx="36.38" ry="36"/></g><path class="cls-1" d="M54.95,26.58c-.62-.95-1.71-1.51-2.85-1.45H25.15c-.56,0-1.11,0-1.67,0-.68,0-1.34,.22-1.88,.62-.68,.46-1.12,1.19-1.2,2.01v19.49c.09,.23,.06,.49,.17,.72,.53,1.22,1.76,1.98,3.08,1.9,9.47,0,18.95,0,28.42,0,1.65,.14,3.1-1.06,3.29-2.7V27.82c-.04-.44-.18-.87-.41-1.24Zm-1.66,19.72c-.54-.54-1.06-1.05-1.57-1.56-2.33-2.33-4.66-4.66-6.99-6.99-.19-.19-.22-.29-.01-.5,2.77-2.76,5.54-5.52,8.29-8.29,.07-.08,.14-.17,.2-.26l.07,.06v17.55Zm-30.83-.02V28.75c.09-.04,.12,.07,.17,.11,2.81,2.81,5.63,5.63,8.44,8.44,.13,.13,.19,.2,.02,.37-2.85,2.84-5.7,5.69-8.54,8.54-.03,.02-.06,.05-.09,.07h0Zm1.57-19h27.71c0,.13-.11,.17-.17,.24-4.24,4.25-8.48,8.49-12.72,12.74-.4,.54-1.16,.65-1.69,.25-.1-.07-.18-.16-.26-.26-4.22-4.23-8.45-8.46-12.68-12.69-.09-.07-.18-.14-.27-.19l.08-.09Zm2.25,18.1c2.07-2.06,4.13-4.13,6.19-6.2,.18-.18,.28-.2,.47,0,.84,.86,1.7,1.71,2.55,2.56,1.21,1.32,3.26,1.41,4.58,.21,.07-.07,.14-.13,.21-.21,.86-.86,1.72-1.72,2.58-2.58,.14-.15,.22-.18,.39-.01,2.81,2.82,5.61,5.64,8.43,8.45,.03,.03,.06,.06,.11,.12H23.91c.83-.82,1.61-1.57,2.37-2.33h0Z"/></g></g></svg>