<?xml version="1.0" encoding="UTF-8"?><svg id="Layer_2" xmlns="http://www.w3.org/2000/svg" viewBox="0 0 75.76 75"><defs><style>.cls-1{fill:#fff;}.cls-2,.cls-3{fill:none;}.cls-3{stroke:#fff;stroke-width:3px;}</style></defs><g id="Footer"><g><g><path class="cls-1" d="M53.78,47.25c-.19,.38-.42,.73-.7,1.04-1.84,2.05-3.96,3.82-6.31,5.26-.73,.4-1.6,.48-2.39,.23-2.95-.63-5.75-1.82-8.24-3.52-5.09-3.28-9.3-7.74-12.29-13-1.17-2.01-2-4.2-2.47-6.49-.04-.2-.07-.4-.1-.61s-.05-.43-.07-.58c0-.35,.1-.7,.3-.99,.95-1.64,2.08-3.17,3.37-4.57,.74-.85,1.56-1.62,2.45-2.32,.79-.71,2.01-.65,2.73,.15,.07,.08,.14,.17,.2,.26,1.63,2.13,3.02,4.43,4.17,6.85,.04,.09,.07,.19,.11,.29,.57,.96,.29,2.2-.64,2.83-.56,.52-1.14,1.01-1.72,1.5-.16,.1-.21,.3-.12,.46,1.31,3.71,4.04,6.74,7.59,8.45,.5,.24,1.01,.46,1.53,.64,.14,.08,.32,.02,.4-.12,.4-.48,.81-.95,1.22-1.42,.19-.22,.4-.44,.61-.64,.54-.56,1.37-.75,2.1-.48,.83,.28,1.62,.65,2.38,1.08,1.73,.97,3.41,2.04,5.01,3.21,.51,.36,.87,.89,1.01,1.49,.09,.33,.05,.68-.11,.99Z"/><path class="cls-1" d="M53.78,47.25c-.19,.38-.42,.73-.7,1.04-1.84,2.05-3.96,3.82-6.31,5.26-.73,.4-1.6,.48-2.39,.23-2.95-.63-5.75-1.82-8.24-3.52-5.09-3.28-9.3-7.74-12.29-13-1.17-2.01-2-4.2-2.47-6.49-.04-.2-.07-.4-.1-.61s-.05-.43-.07-.58c0-.35,.1-.7,.3-.99,.95-1.64,2.08-3.17,3.37-4.57,.74-.85,1.56-1.62,2.45-2.32,.79-.71,2.01-.65,2.73,.15,.07,.08,.14,.17,.2,.26,1.63,2.13,3.02,4.43,4.17,6.85,.04,.09,.07,.19,.11,.29,.57,.96,.29,2.2-.64,2.83-.56,.52-1.14,1.01-1.72,1.5-.16,.1-.21,.3-.12,.46,1.31,3.71,4.04,6.74,7.59,8.45,.5,.24,1.01,.46,1.53,.64,.14,.08,.32,.02,.4-.12,.4-.48,.81-.95,1.22-1.42,.19-.22,.4-.44,.61-.64,.54-.56,1.37-.75,2.1-.48,.83,.28,1.62,.65,2.38,1.08,1.73,.97,3.41,2.04,5.01,3.21,.51,.36,.87,.89,1.01,1.49,.09,.33,.05,.68-.11,.99Z"/></g><g><ellipse class="cls-2" cx="37.88" cy="37.5" rx="37.88" ry="37.5"/><ellipse class="cls-3" cx="37.88" cy="37.5" rx="36.38" ry="36"/></g></g></g></svg>